<svg width="24" height="20" viewBox="0 0 24 20" fill="none" xmlns="http://www.w3.org/2000/svg">
<path d="M24 9.16639C24.0009 8.20941 23.7596 7.26692 23.2974 6.422C22.8352 5.57708 22.1663 4.85569 21.3496 4.32144C20.5329 3.7872 19.5936 3.45649 18.6144 3.3585C17.6352 3.2605 16.6463 3.39823 15.7348 3.75952C14.8233 4.12081 14.0172 4.69458 13.3876 5.43024C12.7581 6.16589 12.3243 7.04084 12.1247 7.97793C11.9251 8.91502 11.9656 9.88547 12.2428 10.8037C12.5201 11.722 13.0254 12.5598 13.7143 13.2434V19.1661C13.7142 19.3082 13.7515 19.448 13.8226 19.5722C13.8937 19.6963 13.9963 19.8007 14.1207 19.8755C14.245 19.9502 14.3869 19.9928 14.533 19.9992C14.679 20.0055 14.8243 19.9755 14.955 19.9119L18 18.4307L21.045 19.9119C21.1757 19.9755 21.321 20.0055 21.467 19.9992C21.6131 19.9928 21.755 19.9502 21.8793 19.8755C22.0037 19.8007 22.1063 19.6963 22.1774 19.5722C22.2485 19.448 22.2858 19.3082 22.2857 19.1661V13.2434C23.3851 12.1556 24.0007 10.6914 24 9.16639ZM18 4.99985C18.8476 4.99985 19.6762 5.24421 20.381 5.70204C21.0858 6.15987 21.6351 6.81059 21.9595 7.57193C22.2839 8.33326 22.3687 9.17102 22.2034 9.97925C22.038 10.7875 21.6298 11.5299 21.0305 12.1126C20.4311 12.6953 19.6674 13.0921 18.8361 13.2529C18.0048 13.4136 17.143 13.3311 16.3599 13.0158C15.5768 12.7004 14.9075 12.1664 14.4366 11.4812C13.9656 10.796 13.7143 9.99046 13.7143 9.16639C13.7143 8.06136 14.1658 7.00158 14.9695 6.2202C15.7733 5.43882 16.8634 4.99985 18 4.99985ZM18.3836 16.7537C18.2645 16.6957 18.1332 16.6656 18 16.6656C17.8668 16.6656 17.7355 16.6957 17.6164 16.7537L15.4286 17.8182V14.436C16.2321 14.8071 17.1105 14.9995 18 14.9995C18.8895 14.9995 19.7679 14.8071 20.5714 14.436V17.8182L18.3836 16.7537ZM12 15.8329C12 16.0539 11.9097 16.2658 11.7489 16.4221C11.5882 16.5784 11.3702 16.6662 11.1429 16.6662H1.71429C1.25963 16.6662 0.823593 16.4906 0.502102 16.178C0.180612 15.8655 0 15.4416 0 14.9996V1.66662C0 1.2246 0.180612 0.800692 0.502102 0.488141C0.823593 0.175589 1.25963 0 1.71429 0H20.5714C21.0261 0 21.4621 0.175589 21.7836 0.488141C22.1051 0.800692 22.2857 1.2246 22.2857 1.66662C22.2857 1.88762 22.1954 2.09958 22.0347 2.25585C21.8739 2.41213 21.6559 2.49993 21.4286 2.49993C21.2012 2.49993 20.9832 2.41213 20.8225 2.25585C20.6617 2.09958 20.5714 1.88762 20.5714 1.66662H1.71429V14.9996H11.1429C11.3702 14.9996 11.5882 15.0873 11.7489 15.2436C11.9097 15.3999 12 15.6119 12 15.8329ZM10.2857 9.9997C10.2857 10.2207 10.1954 10.4327 10.0347 10.5889C9.87392 10.7452 9.6559 10.833 9.42857 10.833H5.14286C4.91553 10.833 4.69751 10.7452 4.53677 10.5889C4.37602 10.4327 4.28571 10.2207 4.28571 9.9997C4.28571 9.77869 4.37602 9.56674 4.53677 9.41046C4.69751 9.25419 4.91553 9.16639 5.14286 9.16639H9.42857C9.6559 9.16639 9.87392 9.25419 10.0347 9.41046C10.1954 9.56674 10.2857 9.77869 10.2857 9.9997ZM10.2857 6.66647C10.2857 6.88748 10.1954 7.09943 10.0347 7.25571C9.87392 7.41198 9.6559 7.49978 9.42857 7.49978H5.14286C4.91553 7.49978 4.69751 7.41198 4.53677 7.25571C4.37602 7.09943 4.28571 6.88748 4.28571 6.66647C4.28571 6.44546 4.37602 6.23351 4.53677 6.07723C4.69751 5.92095 4.91553 5.83316 5.14286 5.83316H9.42857C9.6559 5.83316 9.87392 5.92095 10.0347 6.07723C10.1954 6.23351 10.2857 6.44546 10.2857 6.66647Z" fill="#333333"/>
</svg>
