<svg width="50" height="43" viewBox="0 0 50 43" fill="none" xmlns="http://www.w3.org/2000/svg">
<path d="M38.623 19.001C39.2904 20.1729 39.7868 21.3936 40.1123 22.6631C40.4378 23.9326 40.6087 25.2428 40.625 26.5938V29.1084L25 36.9453L9.375 29.1084C9.375 28.1318 9.38314 27.2204 9.39941 26.374C9.41569 25.5277 9.48893 24.7057 9.61914 23.9082C9.74935 23.1107 9.94466 22.3132 10.2051 21.5156C10.4655 20.7181 10.8561 19.8799 11.377 19.001L6.25 16.4375V30.7686C6.72201 30.9313 7.14518 31.1592 7.51953 31.4521C7.89388 31.7451 8.22754 32.0869 8.52051 32.4775C8.81348 32.8682 9.02507 33.2913 9.15527 33.7471C9.28548 34.2028 9.35872 34.6829 9.375 35.1875V43H0V35.1875C0 34.6992 0.0732422 34.2272 0.219727 33.7715C0.366211 33.3158 0.577799 32.8844 0.854492 32.4775C1.13118 32.0706 1.45671 31.7288 1.83105 31.4521C2.2054 31.1755 2.63672 30.9476 3.125 30.7686V14.875L0 13.3125L25 0.8125L50 13.3125L38.623 19.001ZM6.25 35.1875C6.25 34.7643 6.09538 34.3981 5.78613 34.0889C5.47689 33.7796 5.11068 33.625 4.6875 33.625C4.26432 33.625 3.89811 33.7796 3.58887 34.0889C3.27962 34.3981 3.125 34.7643 3.125 35.1875V39.875H6.25V35.1875ZM6.98242 13.3125L25 22.3213L43.0176 13.3125L25 4.30371L6.98242 13.3125ZM37.5 27.1797C37.5 25.9264 37.3779 24.7627 37.1338 23.6885C36.8896 22.6143 36.4583 21.5156 35.8398 20.3926L25 25.8125L14.1602 20.3926C13.623 21.3366 13.2161 22.3294 12.9395 23.3711C12.6628 24.4128 12.5163 25.487 12.5 26.5938V27.1797L25 33.4297L37.5 27.1797Z" fill="#333333"/>
</svg>
