<svg width="20" height="22" viewBox="0 0 20 22" fill="none" xmlns="http://www.w3.org/2000/svg">
<path d="M7 3.50002H6C3.643 3.50002 2.464 3.50002 1.732 4.23202C1 4.96402 1 6.14302 1 8.50002V9.00002M7 18.5H6C3.643 18.5 2.464 18.5 1.732 17.768C1 17.035 1 15.857 1 13.5V13M11.658 1.34702C9.496 0.970025 8.415 0.782025 7.708 1.40902C7 2.03602 7 3.18302 7 5.47602V16.524C7 18.817 7 19.964 7.707 20.591C8.414 21.218 9.495 21.03 11.657 20.653L13.987 20.247C16.381 19.829 17.578 19.62 18.289 18.742C19 17.863 19 16.593 19 14.052V7.94802C19 5.40802 19 4.13802 18.29 3.25902C17.814 2.67202 17.122 2.38402 16 2.13302M10 10V12" stroke="#C13E18" stroke-width="1.5" stroke-linecap="round"/>
</svg>
