<svg width="30" height="26" viewBox="0 0 30 26" fill="none" xmlns="http://www.w3.org/2000/svg">
<path d="M14.9998 4.33333L14.2798 5.02666C14.3731 5.12345 14.485 5.20043 14.6087 5.25301C14.7324 5.30559 14.8654 5.33269 14.9998 5.33269C15.1343 5.33269 15.2673 5.30559 15.391 5.25301C15.5147 5.20043 15.6266 5.12345 15.7198 5.02666L14.9998 4.33333ZM11.5678 21.4293C9.5465 19.836 7.33717 18.28 5.58384 16.3067C3.8665 14.3707 2.6665 12.112 2.6665 9.18266H0.666504C0.666504 12.7373 2.1465 15.4493 4.08917 17.6347C5.99584 19.7813 8.42784 21.5013 10.3292 23L11.5692 21.4293H11.5678ZM2.6665 9.18266C2.6665 6.316 4.2865 3.91066 6.4985 2.89866C8.64784 1.916 11.5358 2.176 14.2798 5.02666L15.7198 3.64133C12.4665 0.258664 8.68517 -0.300003 5.6665 1.08C2.7145 2.43066 0.666504 5.56666 0.666504 9.18266H2.6665ZM10.3292 23C11.0132 23.5387 11.7465 24.112 12.4892 24.5467C13.2318 24.98 14.0798 25.3333 14.9998 25.3333V23.3333C14.5865 23.3333 14.1012 23.1733 13.4985 22.82C12.8945 22.468 12.2692 21.9827 11.5678 21.4293L10.3292 23ZM19.6705 23C21.5718 21.5 24.0038 19.7827 25.9105 17.6347C27.8532 15.448 29.3332 12.7373 29.3332 9.18266H27.3332C27.3332 12.112 26.1332 14.3707 24.4158 16.3067C22.6625 18.28 20.4532 19.836 18.4318 21.4293L19.6705 23ZM29.3332 9.18266C29.3332 5.56666 27.2865 2.43066 24.3332 1.08C21.3145 -0.300003 17.5358 0.258664 14.2798 3.64L15.7198 5.02666C18.4638 2.17733 21.3518 1.916 23.5012 2.89866C25.7132 3.91066 27.3332 6.31466 27.3332 9.18266H29.3332ZM18.4318 21.4293C17.7305 21.9827 17.1052 22.468 16.5012 22.82C15.8985 23.172 15.4132 23.3333 14.9998 23.3333V25.3333C15.9198 25.3333 16.7678 24.98 17.5105 24.5467C18.2545 24.112 18.9865 23.5387 19.6705 23L18.4318 21.4293Z" fill="#C13E18"/>
</svg>
