<svg width="46" height="38" viewBox="0 0 46 38" fill="none" xmlns="http://www.w3.org/2000/svg">
<path d="M16.7503 3.29166C18.7716 2.65091 20.88 2.32762 23.0003 2.33333C31.7128 2.33333 37.642 7.54166 41.1774 12.1333C42.9482 14.4375 43.8337 15.5854 43.8337 19C43.8337 22.4167 42.9482 23.5646 41.1774 25.8667C37.642 30.4583 31.7128 35.6667 23.0003 35.6667C14.2878 35.6667 8.35866 30.4583 4.82324 25.8667C3.05241 23.5667 2.16699 22.4146 2.16699 19C2.16699 15.5833 3.05241 14.4354 4.82324 12.1333C5.90316 10.7223 7.10577 9.40954 8.41699 8.21041" stroke="#333333" stroke-width="3" stroke-linecap="round"/>
<path d="M29.25 19C29.25 20.6576 28.5915 22.2473 27.4194 23.4194C26.2473 24.5915 24.6576 25.25 23 25.25C21.3424 25.25 19.7527 24.5915 18.5806 23.4194C17.4085 22.2473 16.75 20.6576 16.75 19C16.75 17.3424 17.4085 15.7527 18.5806 14.5806C19.7527 13.4085 21.3424 12.75 23 12.75C24.6576 12.75 26.2473 13.4085 27.4194 14.5806C28.5915 15.7527 29.25 17.3424 29.25 19Z" stroke="#333333" stroke-width="3"/>
</svg>
