<svg width="20" height="19" viewBox="0 0 20 19" fill="none" xmlns="http://www.w3.org/2000/svg">
<path d="M9.04827 0.951056C9.34629 0.0269732 10.6537 0.0269711 10.9517 0.951055L12.4563 5.61623C12.5897 6.03008 12.9753 6.31024 13.4102 6.30929L18.312 6.29857C19.2829 6.29645 19.6869 7.53988 18.9002 8.10887L14.9282 10.9814C14.5759 11.2362 14.4286 11.6895 14.5639 12.1028L16.0888 16.7613C16.3909 17.6841 15.3331 18.4526 14.5489 17.8802L10.5896 14.9903C10.2383 14.7339 9.76168 14.7339 9.41045 14.9903L5.45113 17.8802C4.66686 18.4526 3.60914 17.6841 3.9112 16.7613L5.43612 12.1028C5.57139 11.6895 5.4241 11.2362 5.07175 10.9814L1.09984 8.10887C0.313081 7.53988 0.717093 6.29645 1.68804 6.29857L6.58981 6.30929C7.02465 6.31024 7.41026 6.03008 7.54373 5.61623L9.04827 0.951056Z" fill="#81B7AA"/>
</svg>
